# xmcd
#
# Track frame offsets: 
#        150
#        16856
#        27141
#        39489
#        67133
#        81695
#        92494
#        103099
#        114331
#        129879
#        151661
#        164205
#
# Disc length: 2405 seconds
#
# Revision: 0
# Processed by: cddbd v1.5.2PL0 Copyright (c) Steve Scherf et al.
# Submitted via: ExactAudioCopy v1.0b1
#
DISCID=9309630c
DTITLE=David Allan Coe - Just Divorced
DYEAR=2014
DGENRE=Country
TTITLE0=Mona Lisa Lost Her Smile
TTITLE1=Sweet Angeline
TTITLE2=He's Taking it Hard
TTITLE3=For Lovers Only, Pt. 3
TTITLE4=Thief in My Bedroom
TTITLE5=Just Divorced
TTITLE6=It's Great to Be Single Again
TTITLE7=Blue Grass Morning
TTITLE8=I Wanta Know I'm Goin' Home
TTITLE9=For Your Precious Love
TTITLE10=Cocaine Carolina
TTITLE11=Again, Again and Again
EXTD=
EXTT0=
EXTT1=
EXTT2=
EXTT3=
EXTT4=
EXTT5=
EXTT6=
EXTT7=
EXTT8=
EXTT9=
EXTT10=
EXTT11=
PLAYORDER=
